# AST/ASF file generated using VICON BodyLanguage
# -----------------------------------------------
:version 1.10
:name VICON
:units
  mass 1.0
  length 0.45
  angle deg
:documentation
   .ast/.asf automatically generated from VICON data using
   VICON BodyBuilder and BodyLanguage model FoxedUp or BRILLIANT.MOD
:root
   order TX TY TZ RX RY RZ
   axis XYZ
   position 0 0 0  
   orientation 0 0 0 
:bonedata
  begin
     id 1 
     name lhipjoint
     direction 0.611823 -0.767273 0.19226 
     length 2.47422 
     axis 0 0 0  XYZ
  end
  begin
     id 2 
     name lfemur
     direction 0.34202 -0.939693 0  
     length 7.40835  
     axis 0 0 20  XYZ
    dof rx ry rz
    limits (-160.0 20.0)
           (-70.0 70.0)
           (-60.0 70.0)
  end
  begin
     id 3 
     name ltibia
     direction 0.34202 -0.939693 0   
     length 8.03679   
     axis 0 0 20   XYZ
    dof rx
    limits (-10.0 170.0)
  end
  begin
     id 4 
     name lfoot
     direction 0.0883598 -0.242766 0.966052   
     length 2.06694   
     axis -90 7.62852e-016 20   XYZ
    dof rx rz
    limits (-45.0 90.0)
           (-70.0 20.0)
  end
  begin
     id 5 
     name ltoes
     direction 1.53617e-011 -4.21699e-011 1   
     length 1.03711   
     axis -90 7.62852e-016 20   XYZ
    dof rx
    limits (-90.0 20.0)
  end
  begin
     id 6 
     name rhipjoint
     direction -0.590066 -0.783143 0.196236   
     length 2.42408  
     axis 0 0 0  XYZ 
  end
  begin
     id 7 
     name rfemur
     direction -0.34202 -0.939693 0   
     length 7.88987   
     axis 0 0 -20   XYZ
    dof rx ry rz
    limits (-160.0 20.0)
           (-70.0 70.0)
           (-70.0 60.0)
  end
  begin
     id 8 
     name rtibia
     direction -0.34202 -0.939693 0   
     length 7.87584   
     axis 0 0 -20   XYZ
    dof rx
    limits (-10.0 170.0)
 end
 begin
     id 9 
     name rfoot
     direction -0.130476 -0.358481 0.924374   
     length 2.21745  
     axis -90 -7.62852e-016 -20   XYZ
    dof rx rz
    limits (-45.0 90.0)
           (-20.0 70.0)
  end
  begin
     id 10 
     name rtoes
     direction 8.20695e-005 8.89091e-005 1   
     length 1.09536   
     axis -90 -7.62852e-016 -20   XYZ
    dof rx
    limits (-90.0 20.0)
  end
  begin
     id 11 
     name lowerback
     direction 0.00981224 0.999875 -0.0124197   
     length 1.94808   
     axis 0 0 0   XYZ
    dof rx ry rz
    limits (-20.0 45.0)
           (-30.0 30.0)
           (-30.0 30.0)
  end
  begin
     id 12 
     name upperback
     direction 0.038911 0.999194 0.00981686   
     length 1.94415   
     axis 0 0 0   XYZ
    dof rx ry rz
    limits (-20.0 45.0)
           (-30.0 30.0)
           (-30.0 30.0)
  end
  begin
     id 13 
     name thorax
     direction 0.0330692 0.999334 0.0154389   
     length 1.94117   
     axis 0 0 0   XYZ
    dof rx ry rz
    limits (-20.0 45.0)
           (-30.0 30.0)
           (-30.0 30.0)
  end
  begin
     id 14 
     name lowerneck
     direction -0.0374305 0.99415 0.10132   
     length 1.87291   
     axis 0 0 0   XYZ
    dof rx ry rz
    limits (-20.0 45.0)
           (-30.0 30.0)
           (-30.0 30.0)
  end
  begin
     id 15 
     name upperneck
     direction 0.0120692 0.985979 -0.166431   
     length 1.89248   
     axis 0 0 0   XYZ
    dof rx ry rz
    limits (-20.0 45.0)
           (-30.0 30.0)
           (-30.0 30.0)
  end
  begin
     id 16
     name head
     direction 0.00629908 0.997708 -0.06737  
     length 1.90559  
     axis 0 0 0   XYZ
    dof rx ry rz
    limits (-20.0 45.0)
           (-30.0 30.0)
           (-30.0 30.0)
  end
  begin
     id 17 
     name lclavicle
     direction 0.961536 0.27308 -0.0295863  
     length 3.52757  
     axis 0 0 0   XYZ
    dof ry rz
    limits (-20.0 10.0)
           (0.0 20.0)
  end
  begin
     id 18 
     name lhumerus
     direction 1 -4.48969e-011 2.61153e-029   
     length 5.14845   
     axis 180 -30 -90   XYZ
    dof rx ry rz
    limits (-60.0 90.0)
           (-90.0 90.0)
           (-90.0 90.0)
  end
  begin
     id 19
     name lradius
     direction 1 -4.4896e-011 -3.37549e-027   
     length 3.43674   
     axis 180 -30 -90   XYZ
    dof rx
    limits (-10.0 170.0)
  end
  begin
     id 20
     name lwrist
     direction 1 -4.48969e-011 2.56952e-028   
     length 1.71837   
     axis -5.12785e-016 90 90   XYZ
    dof ry
    limits (-180.0 0.0)
 end
  begin
     id 21 
     name lhand
     direction 1 -4.49094e-011 5.13905e-028   
     length 0.588709   
     axis -3.27915e-016 90 90   XYZ
    dof rx rz
    limits (-90.0 90.0)
           (-45.0 45.0)
  end
  begin
     id 22 
     name lfingers
     direction 1 -4.48821e-011 1.02781e-027   
     length 0.474633   
     axis -6.5583e-016 90 90   XYZ
    dof rx
    limits (0.0 90.0)
  end
  begin
     id 23
     name lthumb
     direction 0.707107 -6.34922e-011 0.707107   
     length 0.68148   
     axis -90 45 2.85299e-015   XYZ
    dof rx rz
    limits (-45.0 45.0)
           (-45.0 45.0)
  end
  begin
     id 24 
     name rclavicle
     direction -0.940964 0.333844 -0.0559866   
     length 3.55948  
     axis 0 0 0   XYZ 
    dof ry rz
    limits (-10.0 20.0)
           (-20.0 0.0)
  end
  begin
     id 25 
     name rhumerus
     direction -1 -4.48973e-011 3.15259e-027  
     length 5.42185   
     axis 180 30 90   XYZ
    dof rx ry rz
    limits (-90.0 60.0)
           (-90.0 90.0)
           (-90.0 90.0)
  end
  begin
     id 26 
     name rradius
     direction -1 -4.48954e-011 -2.56271e-027   
     length 3.51317   
     axis 180 30 90   XYZ
    dof rx
    limits (-10.0 170.0)
  end
  begin
     id 27 
     name rwrist
     direction -1 -4.48943e-011 2.56952e-028   
     length 1.75658   
     axis -5.12785e-016 -90 -90   XYZ
    dof ry
    limits (-180.0 0.0)
  end
  begin
     id 28
     name rhand
     direction -1 -4.4912e-011 5.13905e-028   
     length 0.663187   
     axis -3.27915e-016 -90 -90   XYZ
    dof rx rz
    limits (-90.0 90.0)
           (-45.0 45.0)
  end
  begin
     id 29
     name rfingers
     direction -1 -4.48914e-011 1.02781e-027   
     length 0.534679   
     axis -6.5583e-016 -90 -90   XYZ
    dof rx
    limits (0.0 90.0)
  end
  begin
     id 30
     name rthumb
     direction -0.707107 -6.35033e-011 0.707107   
     length 0.767695   
     axis -90 -45 -2.85299e-015   XYZ
    dof rx rz
    limits (-45.0 45.0)
           (-45.0 45.0)
  end
:hierarchy
  begin
    root lhipjoint rhipjoint lowerback
    lhipjoint lfemur
    lfemur ltibia
    ltibia lfoot
    lfoot ltoes
    rhipjoint rfemur
    rfemur rtibia
    rtibia rfoot
    rfoot rtoes
    lowerback upperback
    upperback thorax
    thorax lowerneck lclavicle rclavicle
    lowerneck upperneck
    upperneck head
    lclavicle lhumerus
    lhumerus lradius
    lradius lwrist
    lwrist lhand lthumb
    lhand lfingers
    rclavicle rhumerus
    rhumerus rradius
    rradius rwrist
    rwrist rhand rthumb
    rhand rfingers
  end

#!OML:ASF F:\VICON\USERDATA\INSTALL\Justin_a\Justin_a.ASF
:FULLY-SPECIFIED
:DEGREES
4037
root 11.4656 17.4267 -4.28724 -542.077 -92.0468 551.109
lowerback 4.10017 0.207184 -0.204924
upperback 1.49559 0.24492 3.47754
thorax -0.778567 0.090098 3.68347
lowerneck -12.3946 -1.19653 -3.42554
upperneck 33.9119 -0.571648 -4.50427
head 13.5293 -1.68977 -1.36784
rclavicle 2.18663e-015 -3.97569e-015
rhumerus -36.9424 -11.1166 -77.7228
rradius 39.2663
rwrist -1.05603
rhand -35.4842 15.4766
rfingers 7.12502
rthumb -8.61209 -14.3278
lclavicle 2.18663e-015 -3.97569e-015
lhumerus -37.6326 10.3153 85.2372
lradius 37.419
lwrist 5.17484
lhand -15.4898 25.6702
lfingers 7.12502
lthumb 10.6923 55.3781
rfemur -46.2814 5.60258 17.692
rtibia 34.3066
rfoot -13.6341 -9.36851
rtoes -3.95921
lfemur -11.3174 -7.18949 -23.2759
ltibia 32.2055
lfoot -26.5092 11.3651
ltoes -18.7764
4038
root 11.374 17.4116 -4.29533 -543.347 -92.3818 552.475
lowerback 3.966 0.067748 -0.195912
upperback 1.50898 0.0566851 3.49826
thorax -0.677407 -0.0052146 3.70835
lowerneck -12.4665 -1.18613 -3.43175
upperneck 33.8186 -0.539614 -4.51328
head 13.5048 -1.67328 -1.36308
rclavicle -5.76476e-015 -3.18055e-015
rhumerus -36.8354 -11.0604 -77.7226
rradius 39.1626
rwrist -1.13374
rhand -35.7057 15.3552
rfingers 7.12502
rthumb -8.82579 -14.4403
lclavicle -5.76476e-015 -3.18055e-015
lhumerus -37.5577 10.4938 85.2507
lradius 37.4866
lwrist 5.17208
lhand -15.5772 25.5594
lfingers 7.12502
lthumb 10.608 55.2716
rfemur -46.2924 5.46504 17.5199
rtibia 34.3631
rfoot -13.1053 -9.40102
rtoes -3.12285
lfemur -10.9957 -7.20103 -23.3246
ltibia 32.0098
lfoot -26.5909 11.3165
ltoes -19.612
4039
root 11.2825 17.4003 -4.30824 -538.945 -92.4783 548.091
lowerback 4.12313 0.0938806 0.112726
upperback 1.37199 0.110565 3.52253
thorax -0.909042 0.0251063 3.55707
lowerneck -12.3945 -1.27385 -3.34998
upperneck 33.8953 -0.689464 -4.55044
head 13.5194 -1.73621 -1.41606
rclavicle -3.97569e-015 -1.11319e-014
rhumerus -37.138 -11.1295 -77.6387
rradius 39.262
rwrist -1.35889
rhand -35.6734 14.9838
rfingers 7.12502
rthumb -8.79463 -14.813
lclavicle -3.97569e-015 -1.11319e-014
lhumerus -37.6906 10.2981 85.2676
lradius 37.4884
lwrist 5.16896
lhand -15.277 25.223
lfingers 7.12502
lthumb 10.8975 54.9202
rfemur -46.2513 5.29637 17.8245
rtibia 34.4872
rfoot -12.7155 -9.2938
rtoes -2.14506
lfemur -10.6081 -7.04951 -23.0549
ltibia 31.8248
lfoot -26.7405 11.2219
ltoes -20.4328
4040
root 11.1854 17.3873 -4.31289 -535.778 -92.6547 544.821
lowerback 4.19952 -0.0128001 0.287617
upperback 1.39096 -0.0266611 3.66071
thorax -0.92373 -0.0457266 3.60865
lowerneck -12.5154 -1.30231 -3.48507
upperneck 33.9304 -0.69456 -4.53
head 13.564 -1.75487 -1.38867
rclavicle -7.95139e-016 -1.59028e-015
rhumerus -37.1681 -11.0263 -77.5616
rradius 39.3026
rwrist -1.18106
rhand -35.3172 14.6666
rfingers 7.12502
rthumb -8.45087 -15.1443
lclavicle -7.95139e-016 -1.59028e-015
lhumerus -37.702 10.3147 85.384
lradius 37.5217
lwrist 5.24461
lhand -15.013 25.1539
lfingers 7.12502
lthumb 11.1522 54.8375
rfemur -46.0242 5.33513 17.9285
rtibia 34.6098
rfoot -12.455 -9.60791
rtoes -1.68914
lfemur -10.151 -6.84769 -22.9869
ltibia 31.779
lfoot -26.5623 12.2879
ltoes -24.9374
4041
root 11.0831 17.3658 -4.32567 -541.178 -92.8326 550.349
lowerback 4.08069 -0.119236 0.0196954
upperback 1.30425 -0.175587 3.62763
thorax -0.93668 -0.117743 3.73279
lowerneck -12.5317 -1.26916 -3.53594
upperneck 33.8854 -0.661056 -4.43258
head 13.5487 -1.73232 -1.33467
rclavicle 0 -1.90833e-014
rhumerus -37.233 -11.1856 -77.5042
rradius 39.1918
rwrist -0.929277
rhand -34.9893 14.573
rfingers 7.12502
rthumb -8.13443 -15.2504
lclavicle 0 -1.90833e-014
lhumerus -37.7599 10.4768 85.3297
lradius 37.4495
lwrist 5.16641
lhand -15.0555 25.2436
lfingers 7.12502
lthumb 11.1113 54.9295
rfemur -46.0738 5.21907 17.6474
rtibia 34.7907
rfoot -12.0842 -9.75506
rtoes -2.19637
lfemur -9.90758 -6.80343 -23.2252
ltibia 31.7693
lfoot -26.7068 12.2887
ltoes -25.8593
4042
root 10.9888 17.3573 -4.32827 -538.121 -92.9148 547.302
lowerback 4.25796 -0.0589448 0.417461
upperback 1.18745 -0.0719012 3.65242
thorax -1.16302 -0.0640712 3.53001
lowerneck -12.4524 -1.35562 -3.57867
upperneck 33.8285 -0.808479 -4.34176
head 13.5051 -1.7859 -1.30926
rclavicle -5.56597e-015 5.88403e-014
rhumerus -37.4943 -11.4127 -77.3486
rradius 39.2925
rwrist -1.18748
rhand -35.1753 14.3537
rfingers 7.12502
rthumb -8.31397 -15.4627
lclavicle -5.56597e-015 5.88403e-014
lhumerus -37.7929 10.351 85.4501
lradius 37.3437
lwrist 5.01389
lhand -15.3085 25.2467
lfingers 7.12502
lthumb 10.8672 54.9455
rfemur -45.9402 5.0731 17.8779
rtibia 35.0069
rfoot -11.9286 -9.58947
rtoes -0.996799
lfemur -9.5488 -6.84457 -23.0207
ltibia 31.814
lfoot -26.9315 12.0543
ltoes -25.576
